<?xml version="1.0" encoding="UTF-8"?>
<svg width="384px" height="512px" viewBox="0 0 384 512" version="1.1" xmlns="http://www.w3.org/2000/svg" xmlns:xlink="http://www.w3.org/1999/xlink">
    <!-- Generator: Sketch 49.3 (51167) - http://www.bohemiancoding.com/sketch -->
    <title>icon</title>
    <desc>Created with Sketch.</desc>
    <defs></defs>
    <g id="Page-1" stroke="none" stroke-width="1" fill="none" fill-rule="evenodd">
        <g id="icon" fill-rule="nonzero">
            <path d="M384,112 L384,464 C384,490.51 362.51,512 336,512 L48,512 C21.49,512 0,490.51 0,464 L0,112 C0,85.49 21.49,64 48,64 L128,64 C128,28.71 156.71,0 192,0 C227.29,0 256,28.71 256,64 L336,64 C362.51,64 384,85.49 384,112 Z M192,40 C178.745,40 168,50.745 168,64 C168,77.255 178.745,88 192,88 C205.255,88 216,77.255 216,64 C216,50.745 205.255,40 192,40 Z M288,154 L288,134 C288,130.686292 285.313708,128 282,128 L102,128 C98.6862915,128 96,130.686292 96,134 L96,154 C96,157.313708 98.6862915,160 102,160 L282,160 C285.313708,160 288,157.313708 288,154 Z" id="Shape" fill="#74C181"></path>
            <path d="M192.17663,237 C162.23649,237 142.844174,249.199752 127.619223,270.956965 C124.857359,274.903801 125.708837,280.315219 129.561493,283.220508 L145.742575,295.422498 C149.633491,298.356512 155.169598,297.670479 158.215789,293.8751 C167.611679,282.168516 174.58142,275.428305 189.257973,275.428305 C200.797563,275.428305 215.070883,282.81426 215.070883,293.942994 C215.070883,302.355947 208.087639,306.676576 196.693589,313.029564 C183.406407,320.438275 165.8232,329.658502 165.8232,352.723617 L165.8232,356.375 C165.8232,361.319736 169.853654,365.328125 174.82561,365.328125 L202.009512,365.328125 C206.981468,365.328125 211.011922,361.319736 211.011922,356.375 L211.011922,354.2214 C211.011922,338.232611 258,337.566723 258,294.3 C258.000375,261.716594 224.015528,237 192.17663,237 Z M188.417749,376.317713 C174.090413,376.317713 162.434168,387.910145 162.434168,402.159043 C162.434168,416.407568 174.090413,428 188.417749,428 C202.745084,428 214.401329,416.407568 214.401329,402.15867 C214.401329,387.909771 202.745084,376.317713 188.417749,376.317713 Z" id="Shape" fill="#FFFFFF"></path>
        </g>
    </g>
</svg>