<?xml version="1.0" encoding="UTF-8"?>
<svg width="512px" height="512px" viewBox="0 0 512 512" version="1.1" xmlns="http://www.w3.org/2000/svg" xmlns:xlink="http://www.w3.org/1999/xlink">
    <!-- Generator: Sketch 49.3 (51167) - http://www.bohemiancoding.com/sketch -->
    <title>icon</title>
    <desc>Created with Sketch.</desc>
    <defs></defs>
    <g id="Page-1" stroke="none" stroke-width="1" fill="none" fill-rule="evenodd">
        <g id="icon" fill="#F2B542" fill-rule="nonzero">
            <path d="M509.5,184.6 L458.9,32.8 C452.4,13.2 434.1,0 413.4,0 L272,0 L272,192 L510.7,192 C510.3,189.5 510.3,187 509.5,184.6 Z M240,0 L98.6,0 C77.9,0 59.6,13.2 53.1,32.8 L2.5,184.6 C1.7,187 1.7,189.5 1.3,192 L240,192 L240,0 Z M0,224 L0,464 C0,490.5 21.5,512 48,512 L464,512 C490.5,512 512,490.5 512,464 L512,224 L0,224 Z" id="Shape"></path>
        </g>
    </g>
</svg>