<?xml version="1.0" encoding="UTF-8"?>
<svg width="384px" height="512px" viewBox="0 0 384 512" version="1.1" xmlns="http://www.w3.org/2000/svg" xmlns:xlink="http://www.w3.org/1999/xlink">
    <!-- Generator: Sketch 49.3 (51167) - http://www.bohemiancoding.com/sketch -->
    <title>icon</title>
    <desc>Created with Sketch.</desc>
    <defs></defs>
    <g id="Page-1" stroke="none" stroke-width="1" fill="none" fill-rule="evenodd">
        <g id="icon" fill-rule="nonzero">
            <path d="M384,112 L384,464 C384,490.51 362.51,512 336,512 L48,512 C21.49,512 0,490.51 0,464 L0,112 C0,85.49 21.49,64 48,64 L128,64 C128,28.71 156.71,0 192,0 C227.29,0 256,28.71 256,64 L336,64 C362.51,64 384,85.49 384,112 Z M192,40 C178.745,40 168,50.745 168,64 C168,77.255 178.745,88 192,88 C205.255,88 216,77.255 216,64 C216,50.745 205.255,40 192,40 Z M288,154 L288,134 C288,130.686292 285.313708,128 282,128 L102,128 C98.6862915,128 96,130.686292 96,134 L96,154 C96,157.313708 98.6862915,160 102,160 L282,160 C285.313708,160 288,157.313708 288,154 Z" id="Shape" fill="#74C181"></path>
            <g id="bars" transform="translate(93.000000, 236.000000)" fill="#FFFFFF">
                <path d="M122,170.6 L122,75.4 C122,70.78 118.203125,67 113.5625,67 L85.4375,67 C80.796875,67 77,70.78 77,75.4 L77,170.6 C77,175.22 80.796875,179 85.4375,179 L113.5625,179 C118.203125,179 122,175.22 122,170.6 Z" id="Path"></path>
                <path d="M45,170.589286 L45,30.4107143 C45,25.7848214 41.203125,22 36.5625,22 L8.4375,22 C3.796875,22 0,25.7848214 0,30.4107143 L0,170.589286 C0,175.215179 3.796875,179 8.4375,179 L36.5625,179 C41.203125,179 45,175.215179 45,170.589286 Z" id="Path"></path>
                <path d="M199,170.609375 L199,8.390625 C199,3.77578125 195.203125,0 190.5625,0 L162.4375,0 C157.796875,0 154,3.77578125 154,8.390625 L154,170.609375 C154,175.224219 157.796875,179 162.4375,179 L190.5625,179 C195.203125,179 199,175.224219 199,170.609375 Z" id="Path"></path>
            </g>
        </g>
    </g>
</svg>