<?xml version="1.0" encoding="UTF-8"?>
<svg width="384px" height="512px" viewBox="0 0 384 512" version="1.1" xmlns="http://www.w3.org/2000/svg" xmlns:xlink="http://www.w3.org/1999/xlink">
    <!-- Generator: Sketch 49.3 (51167) - http://www.bohemiancoding.com/sketch -->
    <title>icon</title>
    <desc>Created with Sketch.</desc>
    <defs></defs>
    <g id="Page-1" stroke="none" stroke-width="1" fill="none" fill-rule="evenodd">
        <g id="icon" fill="#9E6FB2" fill-rule="nonzero">
            <path d="M336,64 L256,64 C256,28.7 227.3,0 192,0 C156.7,0 128,28.7 128,64 L48,64 C21.5,64 0,85.5 0,112 L0,464 C0,490.5 21.5,512 48,512 L336,512 C362.5,512 384,490.5 384,464 L384,112 C384,85.5 362.5,64 336,64 Z M96,424 C82.7,424 72,413.3 72,400 C72,386.7 82.7,376 96,376 C109.3,376 120,386.7 120,400 C120,413.3 109.3,424 96,424 Z M96,328 C82.7,328 72,317.3 72,304 C72,290.7 82.7,280 96,280 C109.3,280 120,290.7 120,304 C120,317.3 109.3,328 96,328 Z M96,232 C82.7,232 72,221.3 72,208 C72,194.7 82.7,184 96,184 C109.3,184 120,194.7 120,208 C120,221.3 109.3,232 96,232 Z M192,40 C205.3,40 216,50.7 216,64 C216,77.3 205.3,88 192,88 C178.7,88 168,77.3 168,64 C168,50.7 178.7,40 192,40 Z M320,408 C320,412.4 316.4,416 312,416 L168,416 C163.6,416 160,412.4 160,408 L160,392 C160,387.6 163.6,384 168,384 L312,384 C316.4,384 320,387.6 320,392 L320,408 Z M320,312 C320,316.4 316.4,320 312,320 L168,320 C163.6,320 160,316.4 160,312 L160,296 C160,291.6 163.6,288 168,288 L312,288 C316.4,288 320,291.6 320,296 L320,312 Z M320,216 C320,220.4 316.4,224 312,224 L168,224 C163.6,224 160,220.4 160,216 L160,200 C160,195.6 163.6,192 168,192 L312,192 C316.4,192 320,195.6 320,200 L320,216 Z" id="Shape"></path>
        </g>
    </g>
</svg>