<?xml version="1.0" encoding="UTF-8" standalone="no"?>
<svg width="16px" height="16px" viewBox="0 0 16 16" version="1.1" xmlns="http://www.w3.org/2000/svg" xmlns:xlink="http://www.w3.org/1999/xlink" xmlns:sketch="http://www.bohemiancoding.com/sketch/ns">
    <!-- Generator: Sketch 3.4.3 (16618) - http://www.bohemiancoding.com/sketch -->
    <title>help</title>
    <desc>Created with Sketch.</desc>
    <defs></defs>
    <g id="Page-1" stroke="none" stroke-width="1" fill="none" fill-rule="evenodd" sketch:type="MSPage">
        <g id="help" sketch:type="MSLayerGroup">
            <circle id="Oval-2" fill="#FFFFFF" sketch:type="MSShapeGroup" cx="8.20779221" cy="8.20779221" r="6.54545455"></circle>
            <g id="question23" fill="#333333" sketch:type="MSShapeGroup">
                <path d="M14.88,4.01168254 C14.1695238,2.7944127 13.2057143,1.83060317 11.9884444,1.12012698 C10.7709206,0.409650794 9.44177778,0.0544761905 8.00012698,0.0544761905 C6.55860317,0.0544761905 5.22907937,0.409650794 4.01180952,1.12012698 C2.7944127,1.83047619 1.83060317,2.79428571 1.12012698,4.01168254 C0.40952381,5.22907937 0.0543492063,6.55860317 0.0543492063,8 C0.0543492063,9.44152381 0.409650794,10.7707937 1.12,11.9883175 C1.83047619,13.2054603 2.79428571,14.1693968 4.01168254,14.879873 C5.22907937,15.5903492 6.55847619,15.9455238 8,15.9455238 C9.44152381,15.9455238 10.7710476,15.5903492 11.9883175,14.879873 C13.2055873,14.1695238 14.1693968,13.2055873 14.879873,11.9883175 C15.5902222,10.7709206 15.9453968,9.44139683 15.9453968,8 C15.9453968,6.55847619 15.5902222,5.22895238 14.88,4.01168254 L14.88,4.01168254 Z M9.32444444,12.9659683 C9.32444444,13.0624762 9.29320635,13.1418413 9.2312381,13.2038095 C9.16939683,13.2657778 9.09003175,13.2967619 8.99352381,13.2967619 L7.00698413,13.2967619 C6.91047619,13.2967619 6.83111111,13.2657778 6.76901587,13.2038095 C6.70692063,13.1418413 6.67593651,13.0624762 6.67593651,12.9659683 L6.67593651,10.9794286 C6.67593651,10.8829206 6.70692063,10.8035556 6.76901587,10.7414603 C6.83111111,10.679619 6.91047619,10.6486349 7.00698413,10.6486349 L8.99352381,10.6486349 C9.09003175,10.6486349 9.16939683,10.679619 9.2312381,10.7414603 C9.29320635,10.8035556 9.32444444,10.8829206 9.32444444,10.9794286 L9.32444444,12.9659683 L9.32444444,12.9659683 Z M11.8435556,6.85155556 C11.7573333,7.10679365 11.6608254,7.31555556 11.5539048,7.4775873 C11.4469841,7.63961905 11.2934603,7.80520635 11.0933333,7.97409524 C10.8935873,8.14311111 10.7348571,8.26387302 10.6173968,8.33638095 C10.5003175,8.40863492 10.3311746,8.50704762 10.1106032,8.63111111 C9.88304762,8.76215873 9.6952381,8.9328254 9.54704762,9.1432381 C9.39873016,9.35352381 9.32457143,9.52431746 9.32457143,9.6552381 C9.32457143,9.75187302 9.29333333,9.8312381 9.23136508,9.89320635 C9.16952381,9.95530159 9.09015873,9.98628571 8.99365079,9.98628571 L7.00711111,9.98628571 C6.91060317,9.98628571 6.8312381,9.95530159 6.76914286,9.89320635 C6.70704762,9.8312381 6.67606349,9.75187302 6.67606349,9.6552381 L6.67606349,9.28266667 C6.67606349,8.82057143 6.85701587,8.38768254 7.2191746,7.98425397 C7.58133333,7.58069841 7.97968254,7.2824127 8.41422222,7.08926984 C8.74514286,6.93765079 8.97968254,6.78234921 9.1175873,6.62374603 C9.25574603,6.46514286 9.32469841,6.25460317 9.32469841,5.99263492 C9.32469841,5.76495238 9.1951746,5.56152381 8.93650794,5.38209524 C8.67784127,5.20279365 8.3832381,5.11314286 8.05206349,5.11314286 C7.69333333,5.11314286 7.3968254,5.19593651 7.16228571,5.36152381 C6.93460317,5.52698413 6.63809524,5.84431746 6.27250794,6.31326984 C6.2104127,6.39606349 6.12419048,6.4375873 6.01384127,6.4375873 C5.93104762,6.4375873 5.86552381,6.41688889 5.81726984,6.37561905 L4.45168254,5.34107937 C4.29307937,5.21688889 4.26552381,5.07212698 4.36888889,4.90653968 C5.25180952,3.43746032 6.5311746,2.70285714 8.20711111,2.70285714 C8.80736508,2.70285714 9.39365079,2.84431746 9.96609524,3.12711111 C10.5385397,3.40977778 11.016127,3.80990476 11.3991111,4.3272381 C11.7815873,4.84444444 11.9732063,5.40660317 11.9732063,6.0135873 C11.9728254,6.31707937 11.9295238,6.59631746 11.8435556,6.85155556 L11.8435556,6.85155556 Z" id="Shape"></path>
            </g>
        </g>
    </g>
</svg>