<?xml version="1.0" encoding="UTF-8"?>
<svg width="448px" height="512px" viewBox="0 0 448 512" version="1.1" xmlns="http://www.w3.org/2000/svg" xmlns:xlink="http://www.w3.org/1999/xlink">
    <!-- Generator: Sketch 49.3 (51167) - http://www.bohemiancoding.com/sketch -->
    <title>base</title>
    <desc>Created with Sketch.</desc>
    <defs></defs>
    <g id="Page-1" stroke="none" stroke-width="1" fill="none" fill-rule="evenodd">
        <g id="base" fill="#9E6FB2" fill-rule="nonzero">
            <path d="M224,48 C321.167,48 400,75.723 400,109.714 L400,114.285 C400,148.277 321.167,176 224,176 C126.833,176 48,148.277 48,114.286 L48,109.715 C48,75.723 126.833,48 224,48 Z M400,183.018 L400,209.417 C400,243.408 321.167,271.131 224,271.131 C126.833,271.131 48,243.408 48,209.417 L48,183.018 C85.813,210.982 155.021,224 224,224 C292.979,224 362.187,210.982 400,183.018 Z M400,279.018 L400,305.852 C400,339.843 321.167,367.566 224,367.566 C126.833,367.566 48,339.842 48,305.851 L48,279.017 C85.813,306.982 155.021,320 224,320 C292.979,320 362.187,306.982 400,279.018 Z M400,375.018 L400,402.286 C400,436.277 321.167,464 224,464 C126.833,464 48,436.277 48,402.286 L48,375.018 C85.813,402.982 155.021,416 224,416 C292.979,416 362.187,402.982 400,375.018 Z M224,0 C137.052,0 0,23.26 0,109.714 L0,402.285 C0,488.758 137.03,512 224,512 C310.948,512 448,488.74 448,402.286 L448,109.714 C448,23.242 310.97,0 224,0 Z" id="Shape"></path>
        </g>
    </g>
</svg>