<?xml version="1.0" encoding="UTF-8"?>
<svg width="448px" height="512px" viewBox="0 0 448 512" version="1.1" xmlns="http://www.w3.org/2000/svg" xmlns:xlink="http://www.w3.org/1999/xlink">
    <!-- Generator: Sketch 49.3 (51167) - http://www.bohemiancoding.com/sketch -->
    <title>calc</title>
    <desc>Created with Sketch.</desc>
    <defs></defs>
    <g id="Page-1" stroke="none" stroke-width="1" fill="none" fill-rule="evenodd">
        <g id="calc" fill="#049084" fill-rule="nonzero">
            <path d="M0,464 L0,48 C0,21.49 21.49,0 48,0 L400,0 C426.51,0 448,21.49 448,48 L448,464 C448,490.51 426.51,512 400,512 L48,512 C21.49,512 0,490.51 0,464 Z M384,180 L384,76 C384,69.373 378.627,64 372,64 L76,64 C69.373,64 64,69.373 64,76 L64,180 C64,186.627 69.373,192 76,192 L372,192 C378.627,192 384,186.627 384,180 Z M128,308 L128,268 C128,261.373 122.627,256 116,256 L76,256 C69.373,256 64,261.373 64,268 L64,308 C64,314.627 69.373,320 76,320 L116,320 C122.627,320 128,314.627 128,308 Z M384,436 L384,268 C384,261.373 378.627,256 372,256 L332,256 C325.373,256 320,261.373 320,268 L320,436 C320,442.627 325.373,448 332,448 L372,448 C378.627,448 384,442.627 384,436 Z M128,436 L128,396 C128,389.373 122.627,384 116,384 L76,384 C69.373,384 64,389.373 64,396 L64,436 C64,442.627 69.373,448 76,448 L116,448 C122.627,448 128,442.627 128,436 Z M256,308 L256,268 C256,261.373 250.627,256 244,256 L204,256 C197.373,256 192,261.373 192,268 L192,308 C192,314.627 197.373,320 204,320 L244,320 C250.627,320 256,314.627 256,308 Z M256,436 L256,396 C256,389.373 250.627,384 244,384 L204,384 C197.373,384 192,389.373 192,396 L192,436 C192,442.627 197.373,448 204,448 L244,448 C250.627,448 256,442.627 256,436 Z" id="Shape"></path>
        </g>
    </g>
</svg>