<?xml version="1.0" encoding="UTF-8"?>
<svg width="512px" height="384px" viewBox="0 0 512 384" version="1.1" xmlns="http://www.w3.org/2000/svg" xmlns:xlink="http://www.w3.org/1999/xlink">
    <!-- Generator: Sketch 49.3 (51167) - http://www.bohemiancoding.com/sketch -->
    <title>chart</title>
    <desc>Created with Sketch.</desc>
    <defs></defs>
    <g id="Page-1" stroke="none" stroke-width="1" fill="none" fill-rule="evenodd">
        <g id="chart" fill="#673AB7" fill-rule="nonzero">
            <path d="M500,320 C506.6,320 512,325.4 512,332 L512,372 C512,378.6 506.6,384 500,384 L12,384 C5.4,384 0,378.6 0,372 L0,12 C0,5.4 5.4,0 12,0 L52,0 C58.6,0 64,5.4 64,12 L64,320 L500,320 Z M192,276 L192,204 C192,197.4 186.6,192 180,192 L140,192 C133.4,192 128,197.4 128,204 L128,276 C128,282.6 133.4,288 140,288 L180,288 C186.6,288 192,282.6 192,276 Z M384,276 L384,140 C384,133.4 378.6,128 372,128 L332,128 C325.4,128 320,133.4 320,140 L320,276 C320,282.6 325.4,288 332,288 L372,288 C378.6,288 384,282.6 384,276 Z M288,276 L288,76 C288,69.4 282.6,64 276,64 L236,64 C229.4,64 224,69.4 224,76 L224,276 C224,282.6 229.4,288 236,288 L276,288 C282.6,288 288,282.6 288,276 Z M480,276 L480,44 C480,37.4 474.6,32 468,32 L428,32 C421.4,32 416,37.4 416,44 L416,276 C416,282.6 421.4,288 428,288 L468,288 C474.6,288 480,282.6 480,276 Z" id="Shape"></path>
        </g>
    </g>
</svg>