<?xml version="1.0" encoding="UTF-8"?>
<svg width="448px" height="512px" viewBox="0 0 448 512" version="1.1" xmlns="http://www.w3.org/2000/svg" xmlns:xlink="http://www.w3.org/1999/xlink">
    <!-- Generator: Sketch 49.3 (51167) - http://www.bohemiancoding.com/sketch -->
    <title>database</title>
    <desc>Created with Sketch.</desc>
    <defs></defs>
    <g id="Page-1" stroke="none" stroke-width="1" fill="none" fill-rule="evenodd">
        <g id="database" fill="#9E6FB2" fill-rule="nonzero">
            <path d="M448,73.143 L448,118.857 C448,159.143 347.667,192 224,192 C100.333,192 0,159.143 0,118.857 L0,73.143 C0,32.857 100.333,0 224,0 C347.667,0 448,32.857 448,73.143 Z M448,176 L448,278.857 C448,319.143 347.667,352 224,352 C100.333,352 0,319.143 0,278.857 L0,176 C48.125,209.143 136.208,224.572 224,224.572 C311.792,224.572 399.874,209.143 448,176 Z M448,336 L448,438.857 C448,479.143 347.667,512 224,512 C100.333,512 0,479.143 0,438.857 L0,336 C48.125,369.143 136.208,384.572 224,384.572 C311.792,384.572 399.874,369.143 448,336 Z" id="Shape"></path>
        </g>
    </g>
</svg>