<?xml version="1.0" encoding="UTF-8"?>
<svg width="384px" height="512px" viewBox="0 0 384 512" version="1.1" xmlns="http://www.w3.org/2000/svg" xmlns:xlink="http://www.w3.org/1999/xlink">
    <!-- Generator: Sketch 49.3 (51167) - http://www.bohemiancoding.com/sketch -->
    <title>dmg</title>
    <desc>Created with Sketch.</desc>
    <defs></defs>
    <g id="Page-1" stroke="none" stroke-width="1" fill="none" fill-rule="evenodd">
        <g id="dmg" fill-rule="nonzero">
            <path d="M224,136 L224,0 L24,0 C10.7,0 0,10.7 0,24 L0,488 C0,501.3 10.7,512 24,512 L360,512 C373.3,512 384,501.3 384,488 L384,160 L248,160 C234.8,160 224,149.2 224,136 Z M384,121.9 L384,128 L256,128 L256,0 L262.1,0 C268.5,0 274.6,2.5 279.1,7 L377,105 C381.5,109.5 384,115.6 384,121.9 Z" id="Shape" fill="#616F80"></path>
            <path d="M56.0625,433 L56.0625,346.28125 L93.3867188,346.28125 C106.824286,346.28125 117.117152,349.845667 124.265625,356.974609 C131.414098,364.103551 134.988281,374.386652 134.988281,387.824219 C134.988281,402.121165 131.199257,413.22457 123.621094,421.134766 C116.042931,429.044961 105.437568,433 91.8046875,433 L56.0625,433 Z M74.109375,420.695312 L87.5859375,420.695312 C97.0781725,420.695312 104.15818,418.068386 108.826172,412.814453 C113.494164,407.560521 115.828125,399.582085 115.828125,388.878906 C115.828125,380.597615 113.953144,373.703153 110.203125,368.195312 C107.624987,364.406231 104.519549,361.78907 100.886719,360.34375 C97.2538881,358.89843 91.9609723,358.175781 85.0078125,358.175781 L74.109375,358.175781 L74.109375,420.695312 Z M151.21875,433 L151.21875,346.28125 L175.125,346.28125 L195.984375,407.277344 L217.488281,346.28125 L238.464844,346.28125 L238.464844,433 L221.824219,433 L221.824219,367.550781 L200.671875,427.199219 L186.140625,427.199219 L165.398438,366.671875 L165.398438,433 L151.21875,433 Z M329.402344,430.949219 C318.542914,433.761733 309.168008,435.167969 301.277344,435.167969 C286.316331,435.167969 274.822306,431.232461 266.794922,423.361328 C258.767538,415.490195 254.753906,404.211011 254.753906,389.523438 C254.753906,374.953052 258.767538,363.742227 266.794922,355.890625 C274.822306,348.039023 286.257738,344.113281 301.101562,344.113281 C310.593797,344.113281 320.007766,345.226551 329.34375,347.453125 L329.34375,361.574219 C318.523383,357.863263 309.636754,356.007812 302.683594,356.007812 C293.50386,356.007812 286.414088,358.937471 281.414062,364.796875 C276.414037,370.656279 273.914062,378.956978 273.914062,389.699219 C273.914062,400.089896 276.589817,408.244111 281.941406,414.162109 C287.292996,420.080108 294.675734,423.039062 304.089844,423.039062 C306.160167,423.039062 308.582017,422.746097 311.355469,422.160156 L311.355469,393.625 L329.402344,393.625 L329.402344,430.949219 Z" id="DMG" fill="#FFFFFF"></path>
        </g>
    </g>
</svg>