<?xml version="1.0" encoding="UTF-8"?>
<svg width="384px" height="512px" viewBox="0 0 384 512" version="1.1" xmlns="http://www.w3.org/2000/svg" xmlns:xlink="http://www.w3.org/1999/xlink">
    <!-- Generator: Sketch 49.3 (51167) - http://www.bohemiancoding.com/sketch -->
    <title>document</title>
    <desc>Created with Sketch.</desc>
    <defs></defs>
    <g id="Page-1" stroke="none" stroke-width="1" fill="none" fill-rule="evenodd">
        <g id="document" fill="#2D5898" fill-rule="nonzero">
            <path d="M224,136 L224,0 L24,0 C10.7,0 0,10.7 0,24 L0,488 C0,501.3 10.7,512 24,512 L360,512 C373.3,512 384,501.3 384,488 L384,160 L248,160 C234.8,160 224,149.2 224,136 Z M281.1,256 L305,256 C312.7,256 318.4,263.1 316.7,270.7 L278.7,438.7 C277.5,444.2 272.6,448 267,448 L229,448 C223.5,448 218.7,444.2 217.4,438.9 C191.6,335.4 196.6,357.7 191.8,328.4 L191.3,328.4 C190.2,342.7 188.9,345.8 165.7,438.9 C164.4,444.2 159.6,448 154.1,448 L117,448 C111.4,448 106.5,444.1 105.3,438.6 L67.5,270.6 C65.8,263.1 71.5,256 79.2,256 L103.7,256 C109.4,256 114.4,260 115.5,265.7 C131.1,343.7 135.6,375.2 136.5,387.9 C138.1,377.7 143.8,355.2 165.9,265.2 C167.2,259.8 172,256.1 177.6,256.1 L206.7,256.1 C212.3,256.1 217.1,259.9 218.4,265.3 C242.4,365.7 247.2,389.3 248,394.7 C247.8,383.5 245.4,376.9 269.6,265.5 C270.6,259.9 275.5,256 281.1,256 Z M384,121.9 L384,128 L256,128 L256,0 L262.1,0 C268.5,0 274.6,2.5 279.1,7 L377,105 C381.5,109.5 384,115.6 384,121.9 Z" id="Shape"></path>
        </g>
    </g>
</svg>