<?xml version="1.0" encoding="UTF-8"?>
<svg width="384px" height="512px" viewBox="0 0 384 512" version="1.1" xmlns="http://www.w3.org/2000/svg" xmlns:xlink="http://www.w3.org/1999/xlink">
    <!-- Generator: Sketch 49.3 (51167) - http://www.bohemiancoding.com/sketch -->
    <title>draw</title>
    <desc>Created with Sketch.</desc>
    <defs></defs>
    <g id="Page-1" stroke="none" stroke-width="1" fill="none" fill-rule="evenodd">
        <g id="draw" fill-rule="nonzero">
            <path d="M224,136 L224,0 L24,0 C10.7,0 0,10.7 0,24 L0,488 C0,501.3 10.7,512 24,512 L360,512 C373.3,512 384,501.3 384,488 L384,160 L248,160 C234.8,160 224,149.2 224,136 Z M384,121.9 L384,128 L256,128 L256,0 L262.1,0 C268.5,0 274.6,2.5 279.1,7 L377,105 C381.5,109.5 384,115.6 384,121.9 Z" id="Shape" fill="#F44236"></path>
            <path d="M197.35957,373.467578 C197.849023,375.705078 198.09375,378.0125 198.09375,380.354883 C198.09375,408.743164 179.144922,425 150.966406,425 C117.508789,425 103,398.115039 103,367.524219 C106.635937,370.006445 119.39668,380.284961 123.52207,380.284961 C125.969336,380.284961 128.066992,378.886523 128.941016,376.579102 C137.191797,354.833398 152.190039,349.833984 168.411914,349.519336 C173.86582,361.336133 184.528906,370.356055 197.35957,373.467578 Z M264.030078,246 C258.995703,246 254.275977,248.2375 250.675,251.488867 C182.780859,312.425781 175.71875,313.85918 175.71875,331.794141 C175.71875,348.855078 189.87793,363.46875 207.253516,363.46875 C227.880469,363.46875 239.837109,348.295703 277.385156,277.884375 C279.832422,273.094727 282,267.920508 282,262.536523 C282,252.887305 273.364648,246 264.030078,246 Z" id="Shape" fill="#FFFFFF"></path>
        </g>
    </g>
</svg>