<?xml version="1.0" encoding="UTF-8"?>
<svg width="384px" height="512px" viewBox="0 0 384 512" version="1.1" xmlns="http://www.w3.org/2000/svg" xmlns:xlink="http://www.w3.org/1999/xlink">
    <!-- Generator: Sketch 49.3 (51167) - http://www.bohemiancoding.com/sketch -->
    <title>eps</title>
    <desc>Created with Sketch.</desc>
    <defs></defs>
    <g id="Page-1" stroke="none" stroke-width="1" fill="none" fill-rule="evenodd">
        <g id="eps" fill-rule="nonzero">
            <path d="M224,136 L224,0 L24,0 C10.7,0 0,10.7 0,24 L0,488 C0,501.3 10.7,512 24,512 L360,512 C373.3,512 384,501.3 384,488 L384,160 L248,160 C234.8,160 224,149.2 224,136 Z M384,121.9 L384,128 L256,128 L256,0 L262.1,0 C268.5,0 274.6,2.5 279.1,7 L377,105 C381.5,109.5 384,115.6 384,121.9 Z" id="Shape" fill="#FEC00A"></path>
            <path d="M86.1035156,430 L86.1035156,334.609375 L145.722656,334.609375 L145.722656,347.693359 L105.955078,347.693359 L105.955078,374.3125 L138.568359,374.3125 L138.568359,387.074219 L105.955078,387.074219 L105.955078,416.464844 L148.751953,416.464844 L148.751953,430 L86.1035156,430 Z M165.380859,430 L165.380859,334.609375 L198.638672,334.609375 C210.240292,334.609375 218.522436,336.553691 223.485352,340.442383 C228.448267,344.331074 230.929688,350.830033 230.929688,359.939453 C230.929688,370.252005 227.610385,378.276339 220.97168,384.012695 C214.332975,389.749052 205.041075,392.617188 193.095703,392.617188 L184.845703,392.617188 L184.845703,430 L165.380859,430 Z M184.845703,379.533203 L188.712891,379.533203 C195.501987,379.533203 200.862285,377.954117 204.793945,374.795898 C208.725606,371.63768 210.691406,367.35159 210.691406,361.9375 C210.691406,352.441359 204.654357,347.693359 192.580078,347.693359 L184.845703,347.693359 L184.845703,379.533203 Z M240.984375,429.162109 L240.984375,412.791016 C251.253958,417.087912 260.040979,419.236328 267.345703,419.236328 C272.45901,419.236328 276.48729,418.097668 279.430664,415.820312 C282.374038,413.542957 283.845703,410.449238 283.845703,406.539062 C283.845703,403.445297 282.921884,400.834972 281.074219,398.708008 C279.226553,396.581044 275.724635,394.056655 270.568359,391.134766 L264.1875,387.589844 C255.636676,382.77732 249.599627,378.168967 246.076172,373.764648 C242.552717,369.36033 240.791016,364.214873 240.791016,358.328125 C240.791016,350.464804 243.680635,344.148461 249.459961,339.378906 C255.239287,334.609351 262.876906,332.224609 272.373047,332.224609 C279.978554,332.224609 288.550734,333.320302 298.089844,335.511719 L298.089844,350.787109 C288.335889,347.134747 280.623075,345.308594 274.951172,345.308594 C270.568337,345.308594 267.055677,346.286123 264.413086,348.241211 C261.770495,350.196299 260.449219,352.763656 260.449219,355.943359 C260.449219,358.564466 261.373038,360.863271 263.220703,362.839844 C265.068369,364.816416 268.548803,367.244126 273.662109,370.123047 L280.494141,373.925781 C289.689499,379.082057 296.027326,383.830056 299.507812,388.169922 C302.988299,392.509787 304.728516,397.794891 304.728516,404.025391 C304.728516,412.876997 301.441439,419.816381 294.867188,424.84375 C288.292936,429.871119 279.22662,432.384766 267.667969,432.384766 C260.019493,432.384766 251.125051,431.310558 240.984375,429.162109 Z" id="EPS" fill="#FFFFFF"></path>
        </g>
    </g>
</svg>