<?xml version="1.0" encoding="UTF-8"?>
<svg width="448px" height="512px" viewBox="0 0 448 512" version="1.1" xmlns="http://www.w3.org/2000/svg" xmlns:xlink="http://www.w3.org/1999/xlink">
    <!-- Generator: Sketch 49.3 (51167) - http://www.bohemiancoding.com/sketch -->
    <title>epub</title>
    <desc>Created with Sketch.</desc>
    <defs></defs>
    <g id="Page-1" stroke="none" stroke-width="1" fill="none" fill-rule="evenodd">
        <g id="epub" fill-rule="nonzero">
            <path d="M448,360 L448,24 C448,10.7 437.3,0 424,0 L96,0 C43,0 0,43 0,96 L0,416 C0,469 43,512 96,512 L424,512 C437.3,512 448,501.3 448,488 L448,472 C448,464.5 444.5,457.7 439.1,453.3 C434.9,437.9 434.9,394 439.1,378.6 C444.5,374.3 448,367.5 448,360 Z M381.4,448 L96,448 C78.3,448 64,433.7 64,416 C64,398.4 78.4,384 96,384 L381.4,384 C379.5,401.1 379.5,430.9 381.4,448 Z" id="Shape" fill="#4CAF50"></path>
            <path d="M128.726562,267.105469 L90.1835938,267.105469 L90.1835938,295.980469 L135.236328,295.980469 L135.236328,309 L73.8769531,309 L73.8769531,215.15625 L134.785156,215.15625 L134.785156,228.304688 L90.1835938,228.304688 L90.1835938,254.214844 L128.726562,254.214844 L128.726562,267.105469 Z M164.820312,274.130859 L164.820312,309 L148.513672,309 L148.513672,215.15625 L184.414062,215.15625 C194.89849,215.15625 203.223602,217.884738 209.389648,223.341797 C215.555695,228.798855 218.638672,236.017533 218.638672,244.998047 C218.638672,254.193405 215.620147,261.347631 209.583008,266.460938 C203.545868,271.574244 195.091851,274.130859 184.220703,274.130859 L164.820312,274.130859 Z M164.820312,261.046875 L184.414062,261.046875 C190.214873,261.046875 194.64061,259.682631 197.691406,256.954102 C200.742203,254.225572 202.267578,250.283229 202.267578,245.126953 C202.267578,240.056615 200.720719,236.006851 197.626953,232.977539 C194.533188,229.948227 190.279324,228.390625 184.865234,228.304688 L164.820312,228.304688 L164.820312,261.046875 Z M301.525391,215.15625 L301.525391,277.869141 C301.525391,287.83794 298.334993,295.733369 291.954102,301.555664 C285.57321,307.377959 277.076225,310.289062 266.462891,310.289062 C255.720649,310.289062 247.191438,307.420927 240.875,301.68457 C234.558562,295.948214 231.400391,287.988332 231.400391,277.804688 L231.400391,215.15625 L247.642578,215.15625 L247.642578,277.933594 C247.642578,284.207063 249.232406,288.99803 252.412109,292.306641 C255.591813,295.615251 260.27536,297.269531 266.462891,297.269531 C279.009828,297.269531 285.283203,290.65241 285.283203,277.417969 L285.283203,215.15625 L301.525391,215.15625 Z M318.927734,309 L318.927734,215.15625 L351.089844,215.15625 C361.703178,215.15625 369.781222,217.283182 375.324219,221.537109 C380.867215,225.791037 383.638672,232.128864 383.638672,240.550781 C383.638672,244.847678 382.478527,248.714827 380.158203,252.152344 C377.837879,255.589861 374.443382,258.253897 369.974609,260.144531 C375.044947,261.519538 378.965806,264.108379 381.737305,267.911133 C384.508803,271.713886 385.894531,276.27927 385.894531,281.607422 C385.894531,290.41606 383.069364,297.18357 377.418945,301.910156 C371.768526,306.636742 363.67974,309 353.152344,309 L318.927734,309 Z M335.234375,266.654297 L335.234375,295.980469 L353.345703,295.980469 C358.45901,295.980469 362.455064,294.712903 365.333984,292.177734 C368.212905,289.642565 369.652344,286.119163 369.652344,281.607422 C369.652344,271.853467 364.668019,266.869142 354.699219,266.654297 L335.234375,266.654297 Z M335.234375,254.666016 L351.21875,254.666016 C356.289088,254.666016 360.252915,253.516613 363.110352,251.217773 C365.967788,248.918934 367.396484,245.664084 367.396484,241.453125 C367.396484,236.812477 366.075209,233.460948 363.432617,231.398438 C360.790026,229.335927 356.675809,228.304688 351.089844,228.304688 L335.234375,228.304688 L335.234375,254.666016 Z" id="EPUB" fill="#FFFFFF"></path>
        </g>
    </g>
</svg>