<?xml version="1.0" encoding="UTF-8"?>
<svg width="512px" height="384px" viewBox="0 0 512 384" version="1.1" xmlns="http://www.w3.org/2000/svg" xmlns:xlink="http://www.w3.org/1999/xlink">
    <!-- Generator: Sketch 49.3 (51167) - http://www.bohemiancoding.com/sketch -->
    <title>explore</title>
    <desc>Created with Sketch.</desc>
    <defs></defs>
    <g id="Page-1" stroke="none" stroke-width="1" fill="none" fill-rule="evenodd">
        <g id="explore" fill-rule="nonzero">
            <path d="M464,64 L272,64 L208,0 L48,0 C21.49,0 0,21.49 0,48 L0,336 C0,362.51 21.49,384 48,384 L464,384 C490.51,384 512,362.51 512,336 L512,112 C512,85.49 490.51,64 464,64 Z" id="Shape" fill="#FFC700"></path>
            <path d="M335.069762,291.923933 L303.270444,260.186603 C301.835169,258.754126 299.889574,257.958305 297.848294,257.958305 L292.649409,257.958305 C301.452429,246.721316 306.68321,232.58754 306.68321,217.212284 C306.68321,180.636364 276.988962,151 240.341605,151 C203.694247,151 174,180.636364 174,217.212284 C174,253.788204 203.694247,283.424568 240.341605,283.424568 C255.746891,283.424568 269.908272,278.203984 281.167208,269.418123 L281.167208,274.606874 C281.167208,276.644175 281.964583,278.585978 283.399858,280.018455 L315.199175,311.755786 C318.197305,314.748071 323.045346,314.748071 326.011581,311.755786 L335.037867,302.747095 C338.035997,299.754809 338.035997,294.916219 335.069762,291.923933 Z M240.341605,257.958305 C217.791838,257.958305 199.516002,239.749927 199.516002,217.212284 C199.516002,194.706474 217.759943,176.466263 240.341605,176.466263 C262.891371,176.466263 281.167208,194.674641 281.167208,217.212284 C281.167208,239.718094 262.923266,257.958305 240.341605,257.958305 Z" id="Shape" fill="#FFFFFF"></path>
        </g>
    </g>
</svg>