<?xml version="1.0" encoding="UTF-8"?>
<svg width="384px" height="512px" viewBox="0 0 384 512" version="1.1" xmlns="http://www.w3.org/2000/svg" xmlns:xlink="http://www.w3.org/1999/xlink">
    <!-- Generator: Sketch 49.3 (51167) - http://www.bohemiancoding.com/sketch -->
    <title>gif</title>
    <desc>Created with Sketch.</desc>
    <defs></defs>
    <g id="Page-1" stroke="none" stroke-width="1" fill="none" fill-rule="evenodd">
        <g id="gif" fill="#3F51B5" fill-rule="nonzero">
            <path d="M384,121.941 L384,128 L256,128 L256,0 L262.059,0 C268.423938,3.3279613e-05 274.528193,2.52842515 279.029,7.029 L376.97,104.97 C381.471,109.471013 383.999747,115.575616 384,121.941 Z M248,160 C234.8,160 224,149.2 224,136 L224,0 L24,0 C10.745,0 0,10.745 0,24 L0,488 C0,501.255 10.745,512 24,512 L360,512 C373.255,512 384,501.255 384,488 L384,160 L248,160 Z M112.545,176 C139.055,176 160.545,197.49 160.545,224 C160.545,250.51 139.055,272 112.545,272 C86.035,272 64.545,250.51 64.545,224 C64.545,197.49 86.036,176 112.545,176 Z M320.545,416 L64.545,416 L65.03,367.515 L104.545,328 C109.231,323.314 116.344,323.799 121.03,328.485 L160.545,368 L264.06,264.485 C268.746,259.799 276.344,259.799 281.031,264.485 L320.545,304 L320.545,416 Z" id="Shape"></path>
        </g>
    </g>
</svg>