<?xml version="1.0" encoding="UTF-8"?>
<svg width="496px" height="496px" viewBox="0 0 496 496" version="1.1" xmlns="http://www.w3.org/2000/svg" xmlns:xlink="http://www.w3.org/1999/xlink">
    <!-- Generator: Sketch 49.3 (51167) - http://www.bohemiancoding.com/sketch -->
    <title>help</title>
    <desc>Created with Sketch.</desc>
    <defs></defs>
    <g id="Page-1" stroke="none" stroke-width="1" fill="none" fill-rule="evenodd">
        <g id="help" fill="#64B5F6" fill-rule="nonzero">
            <path d="M496,248 C496,384.997 384.957,496 248,496 C111.043,496 0,384.997 0,248 C0,111.083 111.043,0 248,0 C384.957,0 496,111.083 496,248 Z M254.655,82 C200.158,82 165.4,104.957 138.106,145.758 C134.57,151.044 135.753,158.173 140.821,162.016 L175.52,188.326 C180.725,192.273 188.141,191.334 192.185,186.204 C210.049,163.546 222.298,150.407 249.488,150.407 C269.917,150.407 295.186,163.555 295.186,183.365 C295.186,198.341 282.823,206.032 262.652,217.341 C239.128,230.528 208,246.941 208,288 L208,292 C208,298.627 213.373,304 220,304 L276,304 C282.627,304 288,298.627 288,292 L288,290.667 C288,262.205 371.186,261.02 371.186,184 C371.186,125.998 311.021,82 254.655,82 Z M248,330 C222.635,330 202,350.635 202,376 C202,401.364 222.635,422 248,422 C273.365,422 294,401.364 294,376 C294,350.635 273.365,330 248,330 Z" id="Shape"></path>
        </g>
    </g>
</svg>