<?xml version="1.0" encoding="UTF-8"?>
<svg width="384px" height="512px" viewBox="0 0 384 512" version="1.1" xmlns="http://www.w3.org/2000/svg" xmlns:xlink="http://www.w3.org/1999/xlink">
    <!-- Generator: Sketch 49.3 (51167) - http://www.bohemiancoding.com/sketch -->
    <title>html</title>
    <desc>Created with Sketch.</desc>
    <defs></defs>
    <g id="Page-1" stroke="none" stroke-width="1" fill="none" fill-rule="evenodd">
        <g id="html" fill="#616F80" fill-rule="nonzero">
            <path d="M384,121.941 L384,128 L256,128 L256,0 L262.059,0 C268.424,0 274.529,2.529 279.03,7.029 L376.971,104.97 C381.471354,109.471363 383.999683,115.575825 384,121.941 Z M248,160 C234.8,160 224,149.2 224,136 L224,0 L24,0 C10.745,0 0,10.745 0,24 L0,488 C0,501.255 10.745,512 24,512 L360,512 C373.255,512 384,501.255 384,488 L384,160 L248,160 Z M123.206,400.505 C122.226443,401.549856 120.871927,402.162773 119.44045,402.208907 C118.008973,402.255042 116.617802,401.730614 115.573,400.751 L50.707,339.939 C49.6180873,338.918144 49.0002831,337.492108 49.0002831,335.9995 C49.0002831,334.506892 49.6180873,333.080856 50.707,332.06 L115.573,271.248 C116.617802,270.268386 118.008973,269.743958 119.44045,269.790093 C120.871927,269.836227 122.226443,270.449144 123.206,271.494 L142.785,292.379 C143.78466,293.445316 144.309369,294.87132 144.239265,296.331263 C144.16916,297.791207 143.510231,299.160374 142.413,300.126 L101.65,336 L142.413,371.874 C143.510231,372.839626 144.16916,374.208793 144.239265,375.668737 C144.309369,377.12868 143.78466,378.554684 142.785,379.621 L123.206,400.505 Z M174.501,450.984 L147.048,443.014 C144.184104,442.181875 142.536376,439.186332 143.367,436.322 L204.807,224.696 C205.639125,221.832104 208.634668,220.184376 211.499,221.015 L238.951,228.985 C240.32645,229.384359 241.486904,230.313788 242.177047,231.568798 C242.86719,232.823809 243.030484,234.301586 242.631,235.677 L181.191,447.303 C180.792527,448.678637 179.863614,449.839483 178.608829,450.529896 C177.354043,451.22031 175.87629,451.383669 174.501,450.984 Z M335.293,339.939 L270.427,400.751 C269.382198,401.730614 267.991027,402.255042 266.55955,402.208907 C265.128073,402.162773 263.773557,401.549856 262.794,400.505 L243.214,379.62 C242.21434,378.553684 241.689631,377.12768 241.759735,375.667737 C241.82984,374.207793 242.488769,372.838626 243.586,371.873 L284.35,336 L243.587,300.126 C242.489769,299.160374 241.83084,297.791207 241.760735,296.331263 C241.690631,294.87132 242.21534,293.445316 243.215,292.379 L262.795,271.494 C263.774557,270.449144 265.129073,269.836227 266.56055,269.790093 C267.992027,269.743958 269.383198,270.268386 270.428,271.248 L335.294,332.06 C336.382783,333.080994 337.000406,334.507109 337.000217,335.999717 C337.000028,337.492324 336.382042,338.918282 335.293,339.939 Z" id="Shape"></path>
        </g>
    </g>
</svg>