<?xml version="1.0" encoding="UTF-8"?>
<svg width="480px" height="480px" viewBox="0 0 480 480" version="1.1" xmlns="http://www.w3.org/2000/svg" xmlns:xlink="http://www.w3.org/1999/xlink">
    <!-- Generator: Sketch 49.3 (51167) - http://www.bohemiancoding.com/sketch -->
    <title>math</title>
    <desc>Created with Sketch.</desc>
    <defs></defs>
    <g id="Page-1" stroke="none" stroke-width="1" fill="none" fill-rule="evenodd">
        <g id="math" fill-rule="nonzero">
            <rect id="Rectangle" fill="#00A9F4" x="0" y="0" width="231.111111" height="231.111111" rx="8"></rect>
            <rect id="Rectangle-Copy-2" fill="#00A9F4" x="0" y="248.888889" width="231.111111" height="231.111111" rx="8"></rect>
            <rect id="Rectangle-Copy" fill="#00A9F4" x="248.888889" y="0" width="231.111111" height="231.111111" rx="8"></rect>
            <rect id="Rectangle-Copy-3" fill="#00A9F4" x="248.888889" y="248.888889" width="231.111111" height="231.111111" rx="8"></rect>
            <path d="M302.222222,318.222222 L427.347222,318.222222 L427.347222,355.461806 L302.222222,355.461806 L302.222222,318.222222 Z M302.222222,374.597222 L427.347222,374.597222 L427.347222,411.722222 L302.222222,411.722222 L302.222222,374.597222 Z" id="=" fill="#FFFFFF"></path>
            <polygon id="+" fill="#FFFFFF" points="51.7604167 96.6736111 95.6458333 96.6736111 95.6458333 52.5590278 132.65625 52.5590278 132.65625 96.6736111 176.770833 96.6736111 176.770833 133.798611 132.65625 133.798611 132.65625 177.684028 95.6458333 177.684028 95.6458333 133.798611 51.7604167 133.798611"></polygon>
            <polygon id="+" fill="#FFFFFF" transform="translate(114.060764, 364.784722) rotate(45.000000) translate(-114.060764, -364.784722) " points="51.5555557 346.336806 95.4409723 346.336806 95.4409723 302.222222 132.451389 302.222222 132.451389 346.336806 176.565972 346.336806 176.565972 383.461806 132.451389 383.461806 132.451389 427.347222 95.4409723 427.347222 95.4409723 383.461806 51.5555557 383.461806"></polygon>
            <polygon id="+" fill="#FFFFFF" points="300.649306 96.6736111 344.534722 96.6736111 381.545139 96.6736111 425.659722 96.6736111 425.659722 133.798611 381.545139 133.798611 344.534722 133.798611 300.649306 133.798611"></polygon>
        </g>
    </g>
</svg>