<?xml version="1.0" encoding="UTF-8"?>
<svg width="384px" height="512px" viewBox="0 0 384 512" version="1.1" xmlns="http://www.w3.org/2000/svg" xmlns:xlink="http://www.w3.org/1999/xlink">
    <!-- Generator: Sketch 49.3 (51167) - http://www.bohemiancoding.com/sketch -->
    <title>audio</title>
    <desc>Created with Sketch.</desc>
    <defs></defs>
    <g id="Page-1" stroke="none" stroke-width="1" fill="none" fill-rule="evenodd">
        <g id="audio" fill="#FF9800" fill-rule="nonzero">
            <path d="M224,136 L224,0 L24,0 C10.7,0 0,10.7 0,24 L0,488 C0,501.3 10.7,512 24,512 L360,512 C373.3,512 384,501.3 384,488 L384,160 L248,160 C234.8,160 224,149.2 224,136 Z M160,404 C160,414.7 147.1,420 139.5,412.5 L104,376 L76,376 C69.4,376 64,370.6 64,364 L64,308 C64,301.4 69.4,296 76,296 L104,296 L139.5,259.5 C147.1,251.9 160,257.3 160,268 L160,404 Z M193.2,356.4 C202.3,347.1 202.3,332.3 193.2,323 C171.1,300.2 205.4,266.8 227.6,289.5 C254.8,317.4 254.8,361.9 227.6,389.9 C205.8,412.2 170.7,379.5 193.2,356.4 Z M279.2,239.3 C333.6,295.2 333.6,384.1 279.2,440.1 C257.4,462.5 222.2,429.8 244.8,406.6 C281,369.4 281.1,310.1 244.8,272.8 C222.7,250 257.1,216.5 279.2,239.3 Z M384,121.9 L384,128 L256,128 L256,0 L262.1,0 C268.5,0 274.6,2.5 279.1,7 L377,105 C381.5,109.5 384,115.6 384,121.9 Z" id="Shape"></path>
        </g>
    </g>
</svg>