<?xml version="1.0" encoding="UTF-8"?>
<svg width="512px" height="384px" viewBox="0 0 512 384" version="1.1" xmlns="http://www.w3.org/2000/svg" xmlns:xlink="http://www.w3.org/1999/xlink">
    <!-- Generator: Sketch 49.3 (51167) - http://www.bohemiancoding.com/sketch -->
    <title>parent</title>
    <desc>Created with Sketch.</desc>
    <defs></defs>
    <g id="Page-1" stroke="none" stroke-width="1" fill="none" fill-rule="evenodd">
        <g id="parent" fill-rule="nonzero">
            <path d="M464,64 L272,64 L208,0 L48,0 C21.49,0 0,21.49 0,48 L0,336 C0,362.51 21.49,384 48,384 L464,384 C490.51,384 512,362.51 512,336 L512,112 C512,85.49 490.51,64 464,64 Z" id="Shape" fill="#FFC700"></path>
            <path d="M272.571129,295.025634 L239.428871,295.025634 C234.837287,295.025634 231.143306,291.323426 231.143306,286.721616 L231.143306,217.521467 L195.30824,217.521467 C187.920278,217.521467 184.226297,208.594648 189.439298,203.335436 L250.131058,142.439305 C253.376238,139.186898 258.623762,139.186898 261.868942,142.439305 L322.560702,203.335436 C327.773703,208.560048 324.079722,217.521467 316.69176,217.521467 L280.856694,217.521467 L280.856694,286.721616 C280.856694,291.323426 277.162713,295.025634 272.571129,295.025634 Z" id="Shape" fill="#FFFFFF"></path>
        </g>
    </g>
</svg>