<?xml version="1.0" encoding="UTF-8"?>
<svg width="384px" height="512px" viewBox="0 0 384 512" version="1.1" xmlns="http://www.w3.org/2000/svg" xmlns:xlink="http://www.w3.org/1999/xlink">
    <!-- Generator: Sketch 49.3 (51167) - http://www.bohemiancoding.com/sketch -->
    <title>pdf</title>
    <desc>Created with Sketch.</desc>
    <defs></defs>
    <g id="Page-1" stroke="none" stroke-width="1" fill="none" fill-rule="evenodd">
        <g id="pdf" fill="#F44236" fill-rule="nonzero">
            <path d="M181.9,256.1 C176.9,240.1 177,209.2 179.9,209.2 C188.3,209.2 187.5,246.1 181.9,256.1 Z M180.2,303.3 C172.5,323.5 162.9,346.6 151.8,366 C170.1,359 190.8,348.8 214.7,344.1 C202,334.5 189.8,320.7 180.2,303.3 Z M86.1,428.1 C86.1,428.9 99.3,422.7 121,387.9 C114.3,394.2 91.9,412.4 86.1,428.1 Z M248,160 L384,160 L384,488 C384,501.3 373.3,512 360,512 L24,512 C10.7,512 0,501.3 0,488 L0,24 C0,10.7 10.7,0 24,0 L224,0 L224,136 C224,149.2 234.8,160 248,160 Z M240,331.8 C220,319.6 206.7,302.8 197.3,278 C201.8,259.5 208.9,231.4 203.5,213.8 C198.8,184.4 161.1,187.3 155.7,207 C150.7,225.3 155.3,251.1 163.8,284 C152.2,311.6 135.1,348.6 123,369.8 C122.9,369.8 122.9,369.9 122.8,369.9 C95.7,383.8 49.2,414.4 68.3,437.9 C73.9,444.8 84.3,447.9 89.8,447.9 C107.7,447.9 125.5,429.9 150.9,386.1 C176.7,377.6 205,367 229.9,362.9 C251.6,374.7 277,382.4 293.9,382.4 C323.1,382.4 325.1,350.4 313.6,339 C299.7,325.4 259.3,329.3 240,331.8 Z M377,105 L279,7 C274.5,2.5 268.4,0 262,0 L256,0 L256,128 L384,128 L384,121.9 C384,115.6 381.5,109.5 377,105 Z M302.9,360.3 C307,357.6 300.4,348.4 260.1,351.3 C297.2,367.1 302.9,360.3 302.9,360.3 Z" id="Shape"></path>
        </g>
    </g>
</svg>