<?xml version="1.0" encoding="UTF-8"?>
<svg width="384px" height="512px" viewBox="0 0 384 512" version="1.1" xmlns="http://www.w3.org/2000/svg" xmlns:xlink="http://www.w3.org/1999/xlink">
    <!-- Generator: Sketch 49.3 (51167) - http://www.bohemiancoding.com/sketch -->
    <title>psd</title>
    <desc>Created with Sketch.</desc>
    <defs></defs>
    <g id="Page-1" stroke="none" stroke-width="1" fill="none" fill-rule="evenodd">
        <g id="psd" fill-rule="nonzero">
            <path d="M224,136 L224,0 L24,0 C10.7,0 0,10.7 0,24 L0,488 C0,501.3 10.7,512 24,512 L360,512 C373.3,512 384,501.3 384,488 L384,160 L248,160 C234.8,160 224,149.2 224,136 Z M384,121.9 L384,128 L256,128 L256,0 L262.1,0 C268.5,0 274.6,2.5 279.1,7 L377,105 C381.5,109.5 384,115.6 384,121.9 Z" id="Shape" fill="#0674D2"></path>
            <path d="M73.40625,429 L73.40625,333.609375 L106.664062,333.609375 C118.265683,333.609375 126.547827,335.553691 131.510742,339.442383 C136.473658,343.331074 138.955078,349.830033 138.955078,358.939453 C138.955078,369.252005 135.635775,377.276339 128.99707,383.012695 C122.358365,388.749052 113.066466,391.617188 101.121094,391.617188 L92.8710938,391.617188 L92.8710938,429 L73.40625,429 Z M92.8710938,378.533203 L96.7382812,378.533203 C103.527378,378.533203 108.887676,376.954117 112.819336,373.795898 C116.750996,370.63768 118.716797,366.35159 118.716797,360.9375 C118.716797,351.441359 112.679748,346.693359 100.605469,346.693359 L92.8710938,346.693359 L92.8710938,378.533203 Z M149.009766,428.162109 L149.009766,411.791016 C159.279348,416.087912 168.06637,418.236328 175.371094,418.236328 C180.484401,418.236328 184.512681,417.097668 187.456055,414.820312 C190.399429,412.542957 191.871094,409.449238 191.871094,405.539062 C191.871094,402.445297 190.947275,399.834972 189.099609,397.708008 C187.251944,395.581044 183.750026,393.056655 178.59375,390.134766 L172.212891,386.589844 C163.662067,381.77732 157.625018,377.168967 154.101562,372.764648 C150.578107,368.36033 148.816406,363.214873 148.816406,357.328125 C148.816406,349.464804 151.706026,343.148461 157.485352,338.378906 C163.264677,333.609351 170.902296,331.224609 180.398438,331.224609 C188.003944,331.224609 196.576124,332.320302 206.115234,334.511719 L206.115234,349.787109 C196.361279,346.134747 188.648466,344.308594 182.976562,344.308594 C178.593728,344.308594 175.081068,345.286123 172.438477,347.241211 C169.795885,349.196299 168.474609,351.763656 168.474609,354.943359 C168.474609,357.564466 169.398428,359.863271 171.246094,361.839844 C173.093759,363.816416 176.574193,366.244126 181.6875,369.123047 L188.519531,372.925781 C197.71489,378.082057 204.052717,382.830056 207.533203,387.169922 C211.013689,391.509787 212.753906,396.794891 212.753906,403.025391 C212.753906,411.876997 209.46683,418.816381 202.892578,423.84375 C196.318327,428.871119 187.252011,431.384766 175.693359,431.384766 C168.044884,431.384766 159.150441,430.310558 149.009766,428.162109 Z M229.769531,429 L229.769531,333.609375 L270.826172,333.609375 C285.607496,333.609375 296.929648,337.530234 304.792969,345.37207 C312.656289,353.213906 316.587891,364.525317 316.587891,379.306641 C316.587891,395.033282 312.419964,407.247027 304.083984,415.948242 C295.748005,424.649458 284.082106,429 269.085938,429 L229.769531,429 Z M249.621094,415.464844 L264.445312,415.464844 C274.886771,415.464844 282.674779,412.575224 287.80957,406.795898 C292.944362,401.016573 295.511719,392.240293 295.511719,380.466797 C295.511719,371.357376 293.449239,363.773468 289.324219,357.714844 C286.488267,353.546854 283.072286,350.667977 279.076172,349.078125 C275.080058,347.488273 269.257851,346.693359 261.609375,346.693359 L249.621094,346.693359 L249.621094,415.464844 Z" id="PSD" fill="#FFFFFF"></path>
        </g>
    </g>
</svg>