<?xml version="1.0" encoding="UTF-8"?>
<svg width="384px" height="512px" viewBox="0 0 384 512" version="1.1" xmlns="http://www.w3.org/2000/svg" xmlns:xlink="http://www.w3.org/1999/xlink">
    <!-- Generator: Sketch 49.3 (51167) - http://www.bohemiancoding.com/sketch -->
    <title>spreadsheet</title>
    <desc>Created with Sketch.</desc>
    <defs></defs>
    <g id="Page-1" stroke="none" stroke-width="1" fill="none" fill-rule="evenodd">
        <g id="spreadsheet" fill="#1A7243" fill-rule="nonzero">
            <path d="M224,136 L224,0 L24,0 C10.7,0 0,10.7 0,24 L0,488 C0,501.3 10.7,512 24,512 L360,512 C373.3,512 384,501.3 384,488 L384,160 L248,160 C234.8,160 224,149.2 224,136 Z M284.1,242.5 L224,336 L284.1,429.5 C289.2,437.5 283.5,448 274,448 L239.1,448 C234.7,448 230.6,445.6 228.5,441.7 C208.9,405.5 192,373 192,373 C185.6,387.8 182,393 155.4,441.8 C153.3,445.7 149.3,448.1 144.9,448.1 L110,448.1 C100.5,448.1 94.8,437.6 99.9,429.6 L160.2,336.1 L99.9,242.6 C94.7,234.6 100.5,224.1 110,224.1 L144.8,224.1 C149.2,224.1 153.3,226.5 155.4,230.4 C181.5,279.2 175.4,264 192,298.9 C192,298.9 198.1,287.2 228.6,230.4 C230.7,226.5 234.8,224.1 239.2,224.1 L274,224.1 C283.5,224 289.2,234.5 284.1,242.5 Z M384,121.9 L384,128 L256,128 L256,0 L262.1,0 C268.5,0 274.6,2.5 279.1,7 L377,105 C381.5,109.5 384,115.6 384,121.9 Z" id="Shape"></path>
        </g>
    </g>
</svg>