<?xml version="1.0" encoding="UTF-8"?>
<svg width="640px" height="832px" viewBox="0 0 640 832" version="1.1" xmlns="http://www.w3.org/2000/svg" xmlns:xlink="http://www.w3.org/1999/xlink">
    <!-- Generator: Sketch 49.3 (51167) - http://www.bohemiancoding.com/sketch -->
    <title>icon</title>
    <desc>Created with Sketch.</desc>
    <defs></defs>
    <g id="Page-1" stroke="none" stroke-width="1" fill="none" fill-rule="evenodd">
        <g id="icon" fill="#9E6FB2" fill-rule="nonzero">
            <path d="M320,0 C178.6,0 64,93.1 64,208 C64,257.6 85.4,303 121,338.7 C108.5,389.1 66.7,434 66.2,434.5 C64,436.8 63.4,440.2 64.7,443.2 C66,446.2 68.8,448 72,448 C138.3,448 188,416.2 212.6,396.6 C245.3,408.9 281.6,416 320,416 C461.4,416 576,322.9 576,208 C576,93.1 461.4,0 320,0 Z" id="Shape"></path>
            <path d="M320,448 C377.99,448 425,495.01 425,553 C425,610.99 377.99,658 320,658 C262.01,658 215,610.99 215,553 C215,495.01 262.01,448 320,448 Z M433.463,665.366 L393.481,655.37 C344.313,690.735 284.715,682.843 246.52,655.37 L206.538,665.366 C174.485,673.379 152,702.177 152,735.216 L152,796 C152,815.882 168.118,832 188,832 L452,832 C471.882,832 488,815.882 488,796 L488,735.216 C488,702.177 465.515,673.379 433.463,665.366 Z M528,684 C566.66,684 598,652.66 598,614 C598,575.34 566.66,544 528,544 C489.34,544 458,575.34 458,614 C458,652.66 489.34,684 528,684 Z M112,684 C150.66,684 182,652.66 182,614 C182,575.34 150.66,544 112,544 C73.34,544 42,575.34 42,614 C42,652.66 73.34,684 112,684 Z M136,796 L136,735.216 C136,718.665 140.593,703.012 148.703,689.617 C118.715,704.337 85.367,698.325 63.013,682.247 L36.358,688.911 C14.99,694.252 0,713.452 0,735.477 L0,776 C0,789.255 10.745,800 24,800 L136.169,800 C136.061749,798.669305 136.005375,797.334999 136,796 Z M603.642,688.91 L576.987,682.246 C549.062,702.332 516.097,701.479 491.201,689.464 C499.369,702.893 504,718.601 504,735.216 L504,796 C504,797.347 503.932,798.678 503.831,800 L616,800 C629.255,800 640,789.255 640,776 L640,735.477 C640,713.452 625.01,694.252 603.642,688.91 Z" id="Shape"></path>
        </g>
    </g>
</svg>