<?xml version="1.0" encoding="UTF-8" standalone="no"?>
<svg width="16px" height="16px" viewBox="0 0 16 16" version="1.1" xmlns="http://www.w3.org/2000/svg" xmlns:xlink="http://www.w3.org/1999/xlink" xmlns:sketch="http://www.bohemiancoding.com/sketch/ns">
    <!-- Generator: Sketch 3.4.3 (16618) - http://www.bohemiancoding.com/sketch -->
    <title>add</title>
    <desc>Created with Sketch.</desc>
    <defs></defs>
    <g id="Page-1" stroke="none" stroke-width="1" fill="none" fill-rule="evenodd" sketch:type="MSPage">
        <g id="add" sketch:type="MSLayerGroup">
            <circle id="Oval-3" fill="#FFFFFF" sketch:type="MSShapeGroup" cx="8" cy="8" r="6"></circle>
            <g id="plus26" fill="#333333" sketch:type="MSShapeGroup">
                <path d="M14.88,4.01168254 C14.1695238,2.7944127 13.2057143,1.83060317 11.9884444,1.12012698 C10.7709206,0.409650794 9.44177778,0.0544761905 8.00012698,0.0544761905 C6.55860317,0.0544761905 5.22907937,0.409650794 4.01180952,1.12012698 C2.7944127,1.83047619 1.83060317,2.79428571 1.12012698,4.01168254 C0.40952381,5.22907937 0.0543492063,6.55860317 0.0543492063,8 C0.0543492063,9.44152381 0.409650794,10.7707937 1.12,11.9883175 C1.83047619,13.2054603 2.79428571,14.1693968 4.01168254,14.879873 C5.22907937,15.5903492 6.55847619,15.9455238 8,15.9455238 C9.44152381,15.9455238 10.7710476,15.5903492 11.9883175,14.879873 C13.2055873,14.1695238 14.1693968,13.2055873 14.879873,11.9883175 C15.5902222,10.7709206 15.9453968,9.44139683 15.9453968,8 C15.9453968,6.55847619 15.5902222,5.22895238 14.88,4.01168254 L14.88,4.01168254 Z M12.6349206,8.66209524 C12.6349206,8.84139683 12.5693968,8.9968254 12.4382222,9.12774603 C12.3071746,9.25866667 12.152,9.32431746 11.9726984,9.32431746 L9.32419048,9.32431746 L9.32419048,11.9726984 C9.32419048,12.152 9.25853968,12.3073016 9.12761905,12.4383492 C8.99657143,12.5693968 8.84139683,12.6349206 8.66209524,12.6349206 L7.33777778,12.6349206 C7.15847619,12.6349206 7.00330159,12.5693968 6.87225397,12.4383492 C6.74120635,12.3073016 6.67568254,12.152 6.67568254,11.9726984 L6.67568254,9.32431746 L4.0271746,9.32431746 C3.84787302,9.32431746 3.69269841,9.25866667 3.56165079,9.12774603 C3.43060317,8.9968254 3.36507937,8.84139683 3.36507937,8.66209524 L3.36507937,7.33777778 C3.36507937,7.15847619 3.43060317,7.00330159 3.56165079,6.87225397 C3.69269841,6.74120635 3.84787302,6.67568254 4.0271746,6.67568254 L6.67580952,6.67568254 L6.67580952,4.0271746 C6.67580952,3.84787302 6.74133333,3.69269841 6.87238095,3.56165079 C7.00342857,3.43060317 7.15860317,3.36507937 7.33790476,3.36507937 L8.66222222,3.36507937 C8.84152381,3.36507937 8.9968254,3.43060317 9.12774603,3.56165079 C9.25866667,3.69269841 9.32444444,3.84787302 9.32444444,4.0271746 L9.32444444,6.67568254 L11.9728254,6.67568254 C12.152127,6.67568254 12.3073016,6.74120635 12.4383492,6.87225397 C12.5693968,7.00330159 12.6349206,7.15847619 12.6349206,7.33777778 L12.6349206,8.66209524 L12.6349206,8.66209524 Z" id="Shape"></path>
            </g>
        </g>
    </g>
</svg>