<?xml version="1.0" encoding="UTF-8" standalone="no"?>
<svg width="16px" height="16px" viewBox="0 0 16 16" version="1.1" xmlns="http://www.w3.org/2000/svg" xmlns:xlink="http://www.w3.org/1999/xlink" xmlns:sketch="http://www.bohemiancoding.com/sketch/ns">
    <!-- Generator: Sketch 3.4.3 (16618) - http://www.bohemiancoding.com/sketch -->
    <title>dock_to_block</title>
    <desc>Created with Sketch.</desc>
    <defs></defs>
    <g id="Page-1" stroke="none" stroke-width="1" fill="none" fill-rule="evenodd" sketch:type="MSPage">
        <g id="dock_to_block" sketch:type="MSLayerGroup" transform="translate(8.000000, 8.000000) rotate(-180.000000) translate(-8.000000, -8.000000) ">
            <g id="check31-+-Shape" fill="#333333" sketch:type="MSShapeGroup">
                <g id="check31">
                    <path d="M15.0167619,0.87415873 C14.4341587,0.291428571 13.7323175,0 12.911619,0 L2.97955556,0 C2.15885714,0 1.45701587,0.291428571 0.87415873,0.87415873 C0.291428571,1.45701587 0,2.15885714 0,2.97955556 L0,12.9114921 C0,13.7321905 0.291428571,14.4340317 0.87415873,15.0168889 C1.45701587,15.599746 2.15885714,15.8911746 2.97955556,15.8911746 L12.9114921,15.8911746 C13.7321905,15.8911746 14.4340317,15.599746 15.0166349,15.0168889 C15.5994921,14.4340317 15.8909206,13.7321905 15.8909206,12.9114921 L15.8909206,2.97955556 C15.8909206,2.15885714 15.5994921,1.45688889 15.0167619,0.87415873 L15.0167619,0.87415873 Z" id="Shape"></path>
                </g>
            </g>
            <g id="chevron21" transform="translate(7.500000, 8.500000) rotate(-270.000000) translate(-7.500000, -8.500000) translate(3.000000, 6.000000)" fill="#FFFFFF" sketch:type="MSShapeGroup">
                <path d="M7.86793651,0.5703125 L7.48006349,0.188375 C7.3455873,0.0628125 7.18863492,0 7.00939683,0 C6.82653968,0 6.67136508,0.0628125 6.54374603,0.188375 L4.02971429,2.6631875 L1.51568254,0.1884375 C1.38806349,0.062875 1.23288889,6.25e-05 1.05009524,6.25e-05 C0.870793651,6.25e-05 0.71384127,0.062875 0.579365079,0.1884375 L0.196571429,0.570375 C0.0655238095,0.6993125 0,0.8538125 0,1.03375 C0,1.2170625 0.0655873016,1.3698125 0.196571429,1.492 L3.56412698,4.8069375 C3.68831746,4.9359375 3.84342857,5.0004375 4.02971429,5.0004375 C4.21250794,5.0004375 4.36939683,4.9359375 4.50038095,4.8069375 L7.86793651,1.492 C7.99555556,1.366375 8.05942857,1.213625 8.05942857,1.03375 C8.05942857,0.8571875 7.99555556,0.70275 7.86793651,0.5703125 L7.86793651,0.5703125 Z" id="Shape"></path>
            </g>
        </g>
    </g>
</svg>