<?xml version="1.0" encoding="UTF-8" standalone="no"?>
<svg width="16px" height="16px" viewBox="0 0 16 16" version="1.1" xmlns="http://www.w3.org/2000/svg" xmlns:xlink="http://www.w3.org/1999/xlink" xmlns:sketch="http://www.bohemiancoding.com/sketch/ns">
    <!-- Generator: Sketch 3.4.3 (16618) - http://www.bohemiancoding.com/sketch -->
    <title>dockclose</title>
    <desc>Created with Sketch.</desc>
    <defs></defs>
    <g id="Page-1" stroke="none" stroke-width="1" fill="none" fill-rule="evenodd" sketch:type="MSPage">
        <g id="dockclose" sketch:type="MSLayerGroup">
            <g id="rounded30" fill="#333333" sketch:type="MSShapeGroup">
                <path d="M15.0712381,0.928634921 C14.4886349,0.345904762 13.7867937,0.0544761905 12.9660952,0.0544761905 L3.03403175,0.0544761905 C2.21333333,0.0544761905 1.51149206,0.345904762 0.928634921,0.928634921 C0.345904762,1.51149206 0.0544761905,2.21333333 0.0544761905,3.03403175 L0.0544761905,12.9659683 C0.0544761905,13.7866667 0.345904762,14.4885079 0.928634921,15.0713651 C1.51149206,15.6542222 2.21333333,15.9456508 3.03403175,15.9456508 L12.9659683,15.9456508 C13.7866667,15.9456508 14.4885079,15.6542222 15.0711111,15.0713651 C15.6539683,14.4885079 15.9453968,13.7866667 15.9453968,12.9659683 L15.9453968,3.03403175 C15.9453968,2.21333333 15.6539683,1.51136508 15.0712381,0.928634921 L15.0712381,0.928634921 Z" id="Shape"></path>
            </g>
            <g id="remove11" transform="translate(4.190476, 4.190476)" fill="#FFFFFF" sketch:type="MSShapeGroup">
                <path d="M5.6342399,3.86463099 L7.5470306,1.95184029 C7.66849157,1.83045917 7.72918213,1.68296514 7.72918213,1.50943806 C7.72918213,1.33591098 7.66841172,1.18849681 7.5470306,1.06703584 L6.66222615,0.18215153 C6.54076518,0.060690558 6.39335101,1.33226763e-15 6.21990378,1.33226763e-15 C6.04629684,1.33226763e-15 5.89888267,0.060690558 5.7774217,0.18215153 L3.86463099,2.09494224 L1.95184029,0.18215153 C1.83045917,0.060690558 1.68296514,1.33226763e-15 1.50943806,1.33226763e-15 C1.33599084,1.33226763e-15 1.18849681,0.060690558 1.06703584,0.18215153 L0.18215153,1.06703584 C0.060770414,1.18841695 1.33226763e-15,1.33591098 1.33226763e-15,1.50943806 C1.33226763e-15,1.68296514 0.060690558,1.83037932 0.18215153,1.95184029 L2.09494224,3.86463099 L0.18215153,5.7774217 C0.060770414,5.89888267 1.33226763e-15,6.04629684 1.33226763e-15,6.21982392 C1.33226763e-15,6.39335101 0.060690558,6.54076518 0.18215153,6.66222615 L1.06703584,7.5470306 C1.18849681,7.66849157 1.33599084,7.72918213 1.50943806,7.72918213 C1.68296514,7.72918213 1.83037932,7.66841172 1.95184029,7.5470306 L3.86463099,5.6342399 L5.77750155,7.5470306 C5.89896253,7.66849157 6.04629684,7.72918213 6.21998364,7.72918213 C6.39343086,7.72918213 6.54092489,7.66841172 6.66230601,7.5470306 L7.5470306,6.66222615 C7.66849157,6.54084503 7.72918213,6.39335101 7.72918213,6.21982392 C7.72918213,6.04629684 7.66849157,5.89888267 7.5470306,5.7774217 L5.6342399,3.86463099 L5.6342399,3.86463099 Z" id="Shape"></path>
            </g>
        </g>
    </g>
</svg>