<?xml version="1.0" encoding="UTF-8" standalone="no"?>
<svg width="16px" height="16px" viewBox="0 0 16 16" version="1.1" xmlns="http://www.w3.org/2000/svg" xmlns:xlink="http://www.w3.org/1999/xlink" xmlns:sketch="http://www.bohemiancoding.com/sketch/ns">
    <!-- Generator: Sketch 3.4.3 (16618) - http://www.bohemiancoding.com/sketch -->
    <title>switch_plus</title>
    <desc>Created with Sketch.</desc>
    <defs></defs>
    <g id="Page-1" stroke="none" stroke-width="1" fill="none" fill-rule="evenodd" sketch:type="MSPage">
        <g id="switch_plus" sketch:type="MSLayerGroup">
            <rect id="Rectangle-3" fill="#FFFFFF" sketch:type="MSShapeGroup" x="2" y="2" width="13" height="13"></rect>
            <g id="Rectangle-2-+-plus27" fill="#333333" sketch:type="MSShapeGroup">
                <g id="plus27">
                    <path d="M15.0712381,0.928634921 C14.4886349,0.345904762 13.7867937,0.0544761905 12.9660952,0.0544761905 L3.03403175,0.0544761905 C2.21333333,0.0544761905 1.51149206,0.345904762 0.928634921,0.928634921 C0.345904762,1.51149206 0.0544761905,2.21333333 0.0544761905,3.03403175 L0.0544761905,12.9659683 C0.0544761905,13.7866667 0.345904762,14.4885079 0.928634921,15.0713651 C1.51149206,15.6542222 2.21333333,15.9456508 3.03403175,15.9456508 L12.9659683,15.9456508 C13.7866667,15.9456508 14.4885079,15.6542222 15.0711111,15.0713651 C15.6539683,14.4885079 15.9453968,13.7866667 15.9453968,12.9659683 L15.9453968,3.03403175 C15.9453968,2.21333333 15.6539683,1.51136508 15.0712381,0.928634921 L15.0712381,0.928634921 Z M13.2970159,8.66209524 C13.2970159,8.84139683 13.2314921,8.9968254 13.1005714,9.12774603 C12.9693968,9.25866667 12.8142222,9.32431746 12.6349206,9.32431746 L9.32444444,9.32431746 L9.32444444,12.6349206 C9.32444444,12.8142222 9.25866667,12.9693968 9.12774603,13.1004444 C8.9968254,13.2314921 8.84152381,13.2970159 8.66222222,13.2970159 L7.33790476,13.2970159 C7.15860317,13.2970159 7.00342857,13.2314921 6.87238095,13.1004444 C6.74133333,12.9693968 6.67580952,12.8142222 6.67580952,12.6349206 L6.67580952,9.32431746 L3.36507937,9.32431746 C3.18577778,9.32431746 3.03060317,9.25866667 2.89955556,9.12774603 C2.76850794,8.9968254 2.70298413,8.84139683 2.70298413,8.66209524 L2.70298413,7.33777778 C2.70298413,7.15847619 2.76850794,7.00330159 2.89955556,6.87225397 C3.03060317,6.74120635 3.18577778,6.67568254 3.36507937,6.67568254 L6.67580952,6.67568254 L6.67580952,3.36507937 C6.67580952,3.18577778 6.74133333,3.03047619 6.87238095,2.89955556 C7.00342857,2.76850794 7.15860317,2.70285714 7.33790476,2.70285714 L8.66222222,2.70285714 C8.84152381,2.70285714 8.9968254,2.76850794 9.12774603,2.89955556 C9.25866667,3.03047619 9.32444444,3.18577778 9.32444444,3.36507937 L9.32444444,6.67568254 L12.6349206,6.67568254 C12.8142222,6.67568254 12.9693968,6.74120635 13.1005714,6.87225397 C13.2314921,7.00330159 13.2970159,7.15847619 13.2970159,7.33777778 L13.2970159,8.66209524 L13.2970159,8.66209524 Z" id="Shape"></path>
                </g>
            </g>
        </g>
    </g>
</svg>