<?xml version="1.0" encoding="UTF-8" standalone="no"?>
<svg width="16px" height="16px" viewBox="0 0 16 16" version="1.1" xmlns="http://www.w3.org/2000/svg" xmlns:xlink="http://www.w3.org/1999/xlink" xmlns:sketch="http://www.bohemiancoding.com/sketch/ns">
    <!-- Generator: Sketch 3.4.3 (16618) - http://www.bohemiancoding.com/sketch -->
    <title>switch_whole</title>
    <desc>Created with Sketch.</desc>
    <defs></defs>
    <g id="Page-1" stroke="none" stroke-width="1" fill="none" fill-rule="evenodd" sketch:type="MSPage">
        <g id="switch_whole" sketch:type="MSLayerGroup">
            <g id="dockclose" fill="#333333" sketch:type="MSShapeGroup">
                <g id="rounded30">
                    <path d="M15.0712381,0.928634921 C14.4886349,0.345904762 13.7867937,0.0544761905 12.9660952,0.0544761905 L3.03403175,0.0544761905 C2.21333333,0.0544761905 1.51149206,0.345904762 0.928634921,0.928634921 C0.345904762,1.51149206 0.0544761905,2.21333333 0.0544761905,3.03403175 L0.0544761905,12.9659683 C0.0544761905,13.7866667 0.345904762,14.4885079 0.928634921,15.0713651 C1.51149206,15.6542222 2.21333333,15.9456508 3.03403175,15.9456508 L12.9659683,15.9456508 C13.7866667,15.9456508 14.4885079,15.6542222 15.0711111,15.0713651 C15.6539683,14.4885079 15.9453968,13.7866667 15.9453968,12.9659683 L15.9453968,3.03403175 C15.9453968,2.21333333 15.6539683,1.51136508 15.0712381,0.928634921 L15.0712381,0.928634921 Z" id="Shape"></path>
                </g>
            </g>
            <g id="increase" transform="translate(4.000000, 4.000000)" fill="#FFFFFF" sketch:type="MSShapeGroup">
                <g id="Group">
                    <path d="M3.29136508,4.11892063 C3.25688889,4.08444444 3.21720635,4.0672381 3.17238095,4.0672381 C3.12755556,4.0672381 3.08787302,4.08444444 3.05339683,4.11892063 L1.336,5.83631746 L0.591111111,5.09136508 C0.525587302,5.02596825 0.448063492,4.99314286 0.358349206,4.99314286 C0.268634921,4.99314286 0.191047619,5.02596825 0.12552381,5.09136508 C0.06,5.15695238 0.0272380952,5.23460317 0.0272380952,5.32425397 L0.0272380952,7.64171429 C0.0272380952,7.73136508 0.06,7.80895238 0.12552381,7.87447619 C0.191111111,7.93993651 0.268698413,7.9727619 0.358349206,7.9727619 L2.67580952,7.9727619 C2.76546032,7.9727619 2.84304762,7.93993651 2.90857143,7.87447619 C2.97409524,7.80895238 3.00685714,7.73136508 3.00685714,7.64171429 C3.00685714,7.55206349 2.97409524,7.4744127 2.90857143,7.4088254 L2.16368254,6.66406349 L3.88107937,4.94660317 C3.91555556,4.91212698 3.9327619,4.87250794 3.9327619,4.82761905 C3.9327619,4.78279365 3.91549206,4.7431746 3.88107937,4.70863492 L3.29136508,4.11892063 L3.29136508,4.11892063 Z" id="Shape"></path>
                    <path d="M7.87447619,0.125587302 C7.80901587,0.0600634921 7.73136508,0.0273015873 7.64171429,0.0273015873 L5.32425397,0.0273015873 C5.23460317,0.0273015873 5.15707937,0.0600634921 5.09149206,0.125587302 C5.02603175,0.191111111 4.99326984,0.268698413 4.99326984,0.358349206 C4.99326984,0.448 5.02603175,0.525650794 5.09149206,0.591111111 L5.83631746,1.336 L4.11892063,3.05339683 C4.08444444,3.08793651 4.0671746,3.12755556 4.0671746,3.17238095 C4.0671746,3.21720635 4.08444444,3.25688889 4.11892063,3.29136508 L4.70863492,3.88107937 C4.74311111,3.91555556 4.78273016,3.9327619 4.82761905,3.9327619 C4.87244444,3.9327619 4.91206349,3.91555556 4.94653968,3.88107937 L6.664,2.16368254 L7.4087619,2.90850794 C7.47434921,2.97403175 7.552,3.00685714 7.64165079,3.00685714 C7.73130159,3.00685714 7.80888889,2.97403175 7.8744127,2.90850794 C7.93987302,2.84304762 7.97263492,2.76539683 7.97263492,2.67574603 L7.97263492,0.358285714 C7.97269841,0.268571429 7.94012698,0.191111111 7.87447619,0.125587302 L7.87447619,0.125587302 Z" id="Shape"></path>
                </g>
            </g>
        </g>
    </g>
</svg>