<?xml version="1.0" encoding="UTF-8"?>
<svg width="384px" height="512px" viewBox="0 0 384 512" version="1.1" xmlns="http://www.w3.org/2000/svg" xmlns:xlink="http://www.w3.org/1999/xlink">
    <!-- Generator: Sketch 49.3 (51167) - http://www.bohemiancoding.com/sketch -->
    <title>icon</title>
    <desc>Created with Sketch.</desc>
    <defs></defs>
    <g id="Page-1" stroke="none" stroke-width="1" fill="none" fill-rule="evenodd">
        <g id="icon" fill="#64B5F6" fill-rule="nonzero">
            <path d="M224,136 L224,0 L24,0 C10.7,0 0,10.7 0,24 L0,488 C0,501.3 10.7,512 24,512 L360,512 C373.3,512 384,501.3 384,488 L384,160 L248,160 C234.8,160 224,149.2 224,136 Z M384,121.9 L384,128 L256,128 L256,0 L262.1,0 C268.5,0 274.6,2.5 279.1,7 L377,105 C381.5,109.5 384,115.6 384,121.9 Z" id="Shape"></path>
        </g>
    </g>
</svg>