<?xml version="1.0" encoding="UTF-8"?>
<svg width="564px" height="384px" viewBox="0 0 564 384" version="1.1" xmlns="http://www.w3.org/2000/svg" xmlns:xlink="http://www.w3.org/1999/xlink">
    <!-- Generator: Sketch 49.3 (51167) - http://www.bohemiancoding.com/sketch -->
    <title>icon</title>
    <desc>Created with Sketch.</desc>
    <defs></defs>
    <g id="Page-1" stroke="none" stroke-width="1" fill="none" fill-rule="evenodd">
        <g id="icon" fill="#64B5F6" fill-rule="nonzero">
            <path d="M380.539,47.485 L395.635,296.44 L384.656,296.165 C348.424,295.341 313.016,304.948 281.999,324.162 C250.983,304.948 215.575,296.165 179.342,296.165 C133.778,296.165 97.272,306.87 55.826,323.888 L87.117,65.6 C115.663,53.797 148.601,47.485 179.343,47.485 C220.516,47.485 253.179,60.66 282,90.029 C309.723,61.758 341.013,48.308 380.539,47.485 Z M563.07,384 C537.544,384 515.585,378.785 492.528,368.355 C458.218,352.71 422.535,343.377 384.657,343.377 C345.68,343.377 309.723,356.278 282,384 C254.277,356.277 218.32,343.377 179.343,343.377 C141.465,343.377 105.782,352.71 71.472,368.355 C49.239,378.236 26.731,384 2.303,384 L0.93,384 L43.475,34.859 C82.726,12.626 130.486,0 175.775,0 C212.83,0 250.984,7.685 282,29.095 C313.016,7.685 351.17,0 388.225,0 C433.514,0 481.274,12.626 520.525,34.859 L563.07,384 Z M519.702,339.259 L485.666,59.013 C454.924,45.014 418.418,37.603 384.657,37.603 C346.229,37.603 310.272,49.68 282,76.305 C253.728,49.68 217.772,37.603 179.343,37.603 C145.582,37.603 109.076,45.014 78.334,59.013 L44.298,339.259 C91.509,319.772 127.192,305.773 179.343,305.773 C216.947,305.773 250.16,315.379 282,335.417 C313.84,315.379 347.052,305.773 384.657,305.773 C436.808,305.773 472.491,319.772 519.702,339.259 Z" id="Shape"></path>
        </g>
    </g>
</svg>